<?xml version="1.0" encoding="UTF-8"?>
<svg id="Layer_1" data-name="Layer 1" xmlns="http://www.w3.org/2000/svg" width="14.79in" height="3.01in" viewBox="0 0 1064.53 216.7">
  <defs>
    <style>
      .cls-1 {
        fill: #3d3519;
      }

      .cls-1, .cls-2, .cls-3 {
        stroke-width: 0px;
      }

      .cls-2 {
        fill: #3d3519;
      }

      .cls-3 {
        fill: #3d3519;
      }
    </style>
  </defs>
  <g>
    <path class="cls-2" d="m169.02,72.84c0-8.64,0-10.2-.11-11.97-.11-1.88-.39-2.77-2.22-3.16-.44-.11-1.38-.17-1.88-.17-.39,0-.61-.11-.61-.33,0-.33.28-.44.89-.44,2.49,0,5.98.17,6.26.17.67,0,4.16-.17,7.48-.17,5.49,0,15.63-.5,22.22,6.32,2.77,2.88,5.38,7.48,5.38,14.07,0,6.98-2.88,12.36-5.98,15.63-2.38,2.49-7.37,6.37-16.79,6.37-2.38,0-5.32-.17-7.7-.33-2.44-.17-4.32-.33-4.6-.33-.11,0-1.05,0-2.22.06-1.11,0-2.38.11-3.21.11-.61,0-.89-.11-.89-.44,0-.17.11-.33.55-.33.61-.06,1.05-.11,1.55-.22,1.11-.22,1.39-1.44,1.61-3.05.28-2.33.28-6.7.28-12.02v-9.75Zm4.65,5.98c0,5.87.06,10.97.11,12.02.06,1.39.17,3.6.61,4.21.72,1.05,2.88,2.22,9.42,2.22,5.15,0,9.92-1.89,13.19-5.15,2.88-2.83,4.43-8.15,4.43-13.24,0-7.04-3.05-11.58-5.32-13.96-5.21-5.49-11.53-6.26-18.12-6.26-1.11,0-3.16.17-3.6.39-.5.22-.66.5-.66,1.11-.06,1.88-.06,7.54-.06,11.8v6.87Z"/>
    <path class="cls-2" d="m218.37,76.66c0-7.26,0-8.59-.11-10.08-.11-1.55-.5-2.33-2.11-2.66-.33-.05-.89-.11-1.33-.11-.39,0-.72-.17-.72-.33,0-.33.28-.44.83-.44,1.11,0,2.6.11,5.71.17.28,0,10.14,0,11.25-.06,1.11-.05,1.72-.11,2.16-.28.33-.11.39-.17.61-.17.11,0,.22.11.22.39,0,.33-.33,1.11-.44,2.49-.06.94-.11,1.83-.17,2.88,0,.5-.11.83-.39.83s-.39-.22-.39-.61c-.06-.83-.22-1.38-.39-1.77-.33-1.11-.83-1.5-3.6-1.66-.72-.05-6.21-.11-6.32-.11-.17,0-.28.11-.28.44v12.58c0,.33.05.55.33.55.67,0,6.32-.06,7.48-.17,1.27-.06,2.11-.22,2.55-.83.22-.33.39-.44.61-.44.11,0,.22.05.22.33s-.22,1.33-.39,2.94c-.17,1.55-.17,2.66-.22,3.38-.06.44-.17.61-.39.61-.28,0-.33-.33-.33-.72,0-.33-.05-.89-.17-1.33-.22-.72-.55-1.49-2.66-1.66-1.27-.11-5.76-.22-6.65-.22-.33,0-.39.17-.39.39v4.05c0,1.72-.06,6.59,0,7.54.11,2.05.39,3.1,1.55,3.6.83.39,2.16.5,4.05.5,1.05,0,2.82.06,4.21-.33,1.66-.5,2.05-1.61,2.49-3.66.11-.55.28-.78.5-.78.33,0,.33.5.33.83,0,.39-.44,3.88-.61,4.82-.22,1.11-.61,1.22-2.44,1.22-3.66,0-5.21-.11-7.15-.11-1.94-.06-4.49-.17-6.54-.17-1.27,0-2.33.17-3.66.17-.5,0-.78-.11-.78-.39,0-.22.22-.39.5-.39.33,0,.72-.06,1.11-.17,1-.22,1.66-.94,1.77-4.38.06-1.88.11-4.16.11-8.37v-8.31Z"/>
    <path class="cls-2" d="m247.29,76.66c0-7.31,0-8.64-.11-10.14-.11-1.49-.5-2.33-2.22-2.66-.33-.06-.89-.11-1.33-.11-.39,0-.61-.11-.61-.33s.17-.39.67-.39c2.38,0,5.76.17,5.87.17.5,0,4.27-.17,5.82-.17,3.1,0,6.48.28,9.09,2.11,1.05.78,3.32,2.99,3.32,6.76,0,3.05-1.5,6.93-5.87,10.47,4.05,4.99,7.37,9.09,10.19,12.02,2.66,2.72,4.32,3.16,5.87,3.38.39.06,1.55.11,1.72.11.44,0,.61.17.61.39,0,.28-.22.39-1,.39h-3.88c-2.6,0-3.82-.17-5.04-.67-2.33-1-3.99-3.49-6.87-7.2-2.16-2.66-4.38-5.65-5.32-6.82-.22-.22-.33-.33-.67-.33l-5.71-.06c-.22,0-.28.06-.28.28v.78c0,4.43,0,8.48.28,10.47.17,1.33.33,2.44,2.16,2.66.55.06,1.16.11,1.61.11.5,0,.72.17.72.33,0,.28-.22.44-.78.44-2.88,0-5.98-.17-6.2-.17-.89,0-3.33.17-4.82.17-.55,0-.78-.11-.78-.44,0-.17.33-.33.67-.33.39,0,.78,0,1.22-.11.94-.16,1.27-.78,1.44-2.1.28-2,.22-6.54.22-10.69v-8.31Zm4.27,3.93c0,.28.06.55.28.67.72.39,2.94.72,4.93.72,1.16,0,2.55-.05,3.71-.83,1.66-1.05,2.77-3.49,2.77-7.04,0-6.04-3.21-9.36-8.14-9.36-1.38,0-2.55.11-3.21.28-.17.05-.33.22-.33.5v15.07Z"/>
    <path class="cls-2" d="m320.75,92.57c.17,1.33.5,4.43,2.66,4.93.94.22,2.05.33,2.83.39.22,0,.72.05.72.33s-.22.44-.83.44c-1,0-6.98-.22-8.75-.33-1.22-.11-1.66-.22-1.66-.5,0-.17.22-.39.5-.5.28-.11.44-.78.33-1.55l-2.44-23.72-11.75,23.83c-1.05,2.16-1.22,2.66-1.72,2.66-.33,0-.61-.5-1.66-2.38-.89-1.61-5.32-10.47-5.65-10.97-.33-.66-5.76-11.41-6.21-12.58l-2.05,21.33c-.05.78-.05,1.27-.05,2.11,0,.61.28,1.44,1.38,1.66.61.11,1,.11,1.55.17.44.05.55.22.55.33,0,.39-.33.44-.94.44-1.77,0-4.16-.17-4.6-.17-.55,0-2.88.17-4.27.17-.5,0-.83-.06-.83-.44,0-.11.22-.33.72-.33.39,0,.44,0,1.05-.06,1.33-.11,1.83-1.44,2.11-3.66l3.71-30.42c.11-.94.33-1.39.61-1.39s.44.17.83.89l14.85,28.76,14.13-28.7c.28-.61.5-.94.83-.94s.5.5.55,1.39l3.49,28.81Z"/>
    <path class="cls-2" d="m338.3,85.14c-.28,0-.44.17-.55.44l-2.44,6.93c-.55,1.55-.94,3.05-.94,3.93,0,1,.61,1.44,1.83,1.44h.39c.5,0,.67.17.67.39,0,.28-.44.39-.83.39-1.22,0-3.77-.17-4.38-.17-.55,0-2.99.17-5.32.17-.61,0-.89-.11-.89-.39,0-.22.22-.39.67-.39.28,0,.78,0,1.11-.06,2.38-.22,3.32-2.05,4.27-4.38l11.08-29.2c.61-1.61.78-1.88,1.16-1.88.28,0,.5.22,1.11,1.77.78,1.83,8.31,21.17,11.25,28.09,1.83,4.38,3.44,5.1,4.21,5.38.72.28,1.49.28,1.88.28s.67.11.67.39-.22.39-.83.39c-.55,0-4.71,0-8.42-.11-1.05-.06-1.38-.11-1.38-.39,0-.17.17-.33.39-.39.22-.11.55-.39.22-1.22l-4.38-11.14c-.11-.17-.22-.28-.44-.28h-10.08Zm9.42-1.94c.22,0,.22-.17.17-.33l-4.38-12.25c-.28-.78-.33-.78-.61,0l-4.16,12.25c-.11.22,0,.33.11.33h8.87Z"/>
    <path class="cls-2" d="m376.96,84.97c0,4.27.05,8.2.28,10.25.17,1.33.28,2.11,1.66,2.44.67.17,1.72.22,2.16.22s.67.17.67.33c0,.28-.17.44-.72.44-2.83,0-6.1-.17-6.32-.17s-3.49.17-4.93.17c-.61,0-.83-.11-.83-.39,0-.17.17-.39.61-.39s.78,0,1.22-.06c1.05-.17,1.22-.83,1.44-2.71.22-2,.22-5.98.22-10.14v-19.78c-1.83,0-4.77,0-6.98.05-3.55.06-4.32.61-5.1,1.77-.5.78-.72,1.44-.83,1.72-.17.39-.28.44-.5.44s-.28-.22-.28-.5c-.06-.33.78-3.99,1.11-5.49.17-.67.33-.89.5-.89.39,0,1.44.5,2.44.61,1.94.22,3.49.28,3.55.28h18.17c1.55,0,3.21-.11,3.99-.28.72-.17.89-.22,1.05-.22.22,0,.33.28.33.5,0,1.55-.11,5.21-.11,5.65,0,.5-.22.67-.39.67-.28,0-.39-.22-.39-.67,0-.17,0-.22-.06-.78-.22-2.22-.94-2.77-6.54-2.83-2.11,0-3.82-.05-5.43-.05v19.78Z"/>
    <path class="cls-2" d="m393.63,80.76c0-7.37,5.71-18.4,19.39-18.4,10.97,0,19.34,6.54,19.34,17.67s-7.81,19.23-19.61,19.23c-13.58,0-19.12-10.08-19.12-18.51Zm33.52.67c0-11.14-6.87-17.34-14.46-17.34s-13.91,4.77-13.91,15.24,6.04,18.06,15.35,18.06c3.71,0,13.02-1.88,13.02-15.96Z"/>
    <path class="cls-2" d="m448.03,85.08c0,6.37.22,9.59,1.16,10.47.89.78,2,1.11,5.82,1.11,2.44,0,4.65,0,5.87-1.55.55-.83.94-1.94,1.05-2.77.06-.44.17-.67.44-.67.22,0,.33.17.33.72s-.33,3.71-.66,4.99c-.33,1.11-.28,1.38-2.94,1.38-3.77,0-7.92-.28-13.47-.28-1.83,0-2.94.17-4.87.17-.55,0-.89-.11-.89-.44,0-.17.17-.33.61-.33s.89,0,1.33-.11c.94-.16,1.27-1.27,1.44-2.6.33-2.11.22-5.93.22-10.2v-8.31c0-7.31,0-8.53-.11-10.03-.11-1.55-.33-2.55-2.22-2.77-.33-.06-.94-.06-1.38-.06-.39,0-.61-.17-.61-.39,0-.28.28-.39.83-.39,2.33,0,5.65.17,5.76.17.78,0,4.16-.17,5.71-.17.55,0,.72.17.72.39s-.28.39-.61.39c-.39,0-.94.06-1.5.11-1.55.22-1.88,1.11-2,2.72-.11,1.49-.05,2.71-.05,10.03v8.42Z"/>
    <path class="cls-2" d="m466.8,80.76c0-7.37,5.71-18.4,19.39-18.4,10.97,0,19.34,6.54,19.34,17.67s-7.81,19.23-19.62,19.23c-13.57,0-19.12-10.08-19.12-18.51Zm33.52.67c0-11.14-6.87-17.34-14.46-17.34s-13.91,4.77-13.91,15.24,6.04,18.06,15.35,18.06c3.71,0,13.02-1.88,13.02-15.96Z"/>
    <path class="cls-2" d="m545.58,94.56c0,2.22-.06,2.27-.67,2.6-3.05,1.55-7.48,2.11-10.2,2.11-3.6,0-10.58-.28-16.23-4.99-2.99-2.49-5.98-7.15-5.98-13.46,0-7.54,3.82-12.91,8.37-15.63,4.27-2.49,8.98-2.83,12.36-2.83,3.55,0,5.93.44,7.92.78.89.17,3.05.44,4.21.5.44,0,.44.22.44.44,0,.67-.39,2.33-.39,7.2,0,.78-.06,1-.44,1-.28,0-.33-.33-.39-.67,0-.5-.22-2.22-1.05-3.44-1.28-1.83-5.27-3.88-11.47-3.88-2.99,0-6.48.11-10.2,2.94-2.82,2.16-4.65,6.37-4.65,11.86,0,6.59,3.6,11.47,5.04,12.86,3.66,3.55,7.76,5.15,12.58,5.15,1.55,0,3.99-.28,5.26-.94.55-.33.94-.89.94-1.66v-7.98c0-3.66-.28-4.38-2.22-4.65-.33-.06-.89-.11-1.33-.11s-.67-.22-.67-.39c0-.28.22-.39.83-.39,2.22,0,5.43.11,5.65.11s3.49-.11,4.99-.11c.55,0,.78.11.78.39,0,.17-.17.39-.67.39-.39,0-.5,0-.94.05-1.33.17-1.66,1.16-1.77,2.77-.11,1.61-.11,2.99-.11,4.99v4.99Z"/>
    <path class="cls-2" d="m566.46,86.58c0-2.66-.38-3.66-1.22-5.1-.33-.61-6.76-11.08-8.47-13.47-1.5-2.11-2.05-2.77-2.83-3.38-.77-.55-1.49-.78-2.6-.83-.33,0-.61-.17-.61-.44,0-.17.22-.33.67-.33.89,0,5.1.17,5.21.17.33,0,2.16-.17,4.21-.17.55,0,.72.17.72.33,0,.22-.17.33-.61.44-.78.17-.89.44-.89.89,0,.55.33,1.11.72,1.83.72,1.39,8.03,13.13,8.87,14.52.89-1.94,7.09-12.08,7.87-13.46,1.05-1.83,1.27-2.33,1.27-2.94,0-.72-.67-.72-1.27-.83-.44-.05-.61-.22-.61-.44,0-.17.11-.33.67-.33,1.33,0,2.49.17,3.38.17.72,0,3.93-.17,4.87-.17.5,0,.67.17.67.33,0,.28-.28.44-.67.44-1.16.06-1.99.17-2.77.72-.83.55-1.16,1.05-2.05,2.27-3.21,4.43-8.59,13.46-9.42,15.4-.67,1.72-.56,2.94-.56,4.38v4.05c0,.39,0,2.44.11,4.43.11,1.33.22,2.27,1.94,2.6.72.17,1.66.22,2.05.22.44,0,.61.17.61.33,0,.28-.17.44-.67.44-2.77,0-6.21-.17-6.37-.17-.11,0-3.44.17-4.99.17-.55,0-.78-.17-.78-.44,0-.17.17-.33.56-.33.44,0,.94-.06,1.38-.17.95-.17,1.33-1.33,1.44-2.66.16-1.99.16-3.99.16-4.43v-4.05Z"/>
    <path class="cls-2" d="m169.02,134.39c0-8.64,0-10.2-.11-11.97-.11-1.88-.55-2.77-2.38-3.16-.44-.11-1.38-.17-1.88-.17-.22,0-.44-.11-.44-.33,0-.33.28-.44.89-.44,2.49,0,5.82.17,6.26.17,1.22,0,4.43-.17,6.98-.17,6.93,0,9.42,2.33,10.31,3.16,1.22,1.16,2.77,3.66,2.77,7.26,0,7.2-5.76,12.52-13.63,12.52-.28,0-.89,0-1.16-.06-.28,0-.61-.11-.61-.39,0-.44.33-.5,1.49-.5,5.38,0,9.59-3.66,9.59-9.47,0-1.38-.17-5.1-3.1-8.09-2.94-2.99-6.32-2.77-7.59-2.77-.94,0-1.88.11-2.38.33-.33.11-.44.5-.44,1.05v22.77c0,5.32,0,9.69.28,12.02.17,1.61.5,2.83,2.16,3.05.78.11,1.99.22,2.49.22.33,0,.44.17.44.33,0,.28-.28.44-.89.44-3.05,0-6.54-.17-6.82-.17-.17,0-3.66.17-5.32.17-.61,0-.89-.11-.89-.44,0-.17.11-.33.44-.33.5,0,1.16-.11,1.66-.22,1.11-.22,1.39-1.44,1.61-3.05.28-2.33.28-6.7.28-12.02v-9.75Z"/>
    <path class="cls-2" d="m201.31,146.69c-.28,0-.44.17-.55.44l-2.44,6.93c-.55,1.55-.94,3.05-.94,3.93,0,1,.61,1.44,1.83,1.44h.39c.5,0,.67.17.67.39,0,.28-.44.39-.83.39-1.22,0-3.77-.17-4.38-.17-.55,0-2.99.17-5.32.17-.61,0-.89-.11-.89-.39,0-.22.22-.39.67-.39.28,0,.78,0,1.11-.06,2.38-.22,3.32-2.05,4.27-4.38l11.08-29.2c.61-1.61.78-1.88,1.16-1.88.28,0,.5.22,1.11,1.77.78,1.83,8.31,21.17,11.25,28.09,1.83,4.38,3.44,5.1,4.21,5.38.72.28,1.49.28,1.88.28s.67.11.67.39-.22.39-.83.39c-.55,0-4.71,0-8.42-.11-1.05-.06-1.38-.11-1.38-.39,0-.17.17-.33.39-.39.22-.11.55-.39.22-1.22l-4.38-11.14c-.11-.17-.22-.28-.44-.28h-10.08Zm9.42-1.94c.22,0,.22-.17.17-.33l-4.38-12.25c-.28-.78-.33-.78-.61,0l-4.16,12.25c-.11.22,0,.33.11.33h8.87Z"/>
    <path class="cls-2" d="m233.05,138.21c0-7.31,0-8.64-.11-10.14-.11-1.49-.5-2.33-2.22-2.66-.33-.06-.89-.11-1.33-.11-.39,0-.61-.11-.61-.33s.17-.39.67-.39c2.38,0,5.76.17,5.87.17.5,0,4.27-.17,5.82-.17,3.1,0,6.48.28,9.09,2.11,1.05.78,3.32,2.99,3.32,6.76,0,3.05-1.5,6.93-5.87,10.47,4.05,4.99,7.37,9.09,10.19,12.02,2.66,2.72,4.32,3.16,5.87,3.38.39.06,1.55.11,1.72.11.44,0,.61.17.61.39,0,.28-.22.39-1,.39h-3.88c-2.6,0-3.82-.17-5.04-.67-2.33-1-3.99-3.49-6.87-7.2-2.16-2.66-4.38-5.65-5.32-6.82-.22-.22-.33-.33-.67-.33l-5.71-.06c-.22,0-.28.06-.28.28v.78c0,4.43,0,8.48.28,10.47.17,1.33.33,2.44,2.16,2.66.55.06,1.16.11,1.61.11.5,0,.72.17.72.33,0,.28-.22.44-.78.44-2.88,0-5.98-.17-6.2-.17-.89,0-3.33.17-4.82.17-.55,0-.78-.11-.78-.44,0-.17.33-.33.67-.33.39,0,.78,0,1.22-.11.94-.16,1.27-.78,1.44-2.1.28-2,.22-6.54.22-10.69v-8.31Zm4.27,3.93c0,.28.06.55.28.67.72.39,2.94.72,4.93.72,1.16,0,2.55-.05,3.71-.83,1.66-1.05,2.77-3.49,2.77-7.04,0-6.04-3.21-9.36-8.14-9.36-1.39,0-2.55.11-3.21.28-.17.05-.33.22-.33.5v15.07Z"/>
    <path class="cls-2" d="m278.75,146.52c0,4.27.05,8.2.28,10.25.17,1.33.28,2.11,1.66,2.44.67.17,1.72.22,2.16.22s.67.17.67.33c0,.28-.17.44-.72.44-2.83,0-6.1-.17-6.32-.17s-3.49.17-4.93.17c-.61,0-.83-.11-.83-.39,0-.17.17-.39.61-.39s.78,0,1.22-.06c1.05-.17,1.22-.83,1.44-2.71.22-2,.22-5.98.22-10.14v-19.78c-1.83,0-4.77,0-6.98.05-3.55.06-4.32.61-5.1,1.77-.5.78-.72,1.44-.83,1.72-.17.39-.28.44-.5.44s-.28-.22-.28-.5c-.06-.33.78-3.99,1.11-5.49.17-.67.33-.89.5-.89.39,0,1.44.5,2.44.61,1.94.22,3.49.28,3.55.28h18.17c1.55,0,3.21-.11,3.99-.28.72-.17.89-.22,1.05-.22.22,0,.33.28.33.5,0,1.55-.11,5.21-.11,5.65,0,.5-.22.67-.39.67-.28,0-.39-.22-.39-.67,0-.17,0-.22-.06-.78-.22-2.22-.94-2.77-6.54-2.83-2.11,0-3.82-.05-5.43-.05v19.78Z"/>
    <path class="cls-2" d="m300.35,126.19c0-1.72.17-2.27.61-2.27.39,0,1.33,1.11,1.72,1.5.5.55,8.2,8.42,15.96,16.34,4.32,4.21,9.86,9.92,11.3,11.25l-.61-23.05c-.05-2.99-.39-3.99-1.88-4.38-.94-.17-1.77-.22-2.16-.22-.55,0-.67-.22-.67-.44,0-.28.44-.33,1-.33,2.38,0,4.71.17,5.21.17.55,0,2.27-.17,4.43-.17.61,0,.78.06.78.33,0,.22-.17.39-.5.44-.33.06-.78.06-1.39.17-1.27.28-1.66.83-1.66,4.16l-.11,27.82c0,2.77-.11,3.05-.5,3.05s-.94-.39-3.66-2.94c-.22-.11-7.92-7.76-12.74-12.47-5.76-5.98-11.3-11.75-12.69-13.19l.72,21.67c.11,3.82.44,5.26,1.83,5.6.89.22,1.83.22,2.27.22s.67.17.67.39c0,.28-.28.39-.89.39-2.99,0-4.99-.17-5.37-.17s-2.44.17-4.82.17c-.5,0-.83-.06-.83-.39,0-.22.22-.39.78-.39.39,0,1,0,1.72-.22,1.22-.39,1.5-1.88,1.5-5.93,0-26.43.06-17.9,0-27.09Z"/>
    <path class="cls-2" d="m348.32,138.21c0-7.26,0-8.59-.11-10.08-.11-1.55-.5-2.33-2.11-2.66-.33-.05-.89-.11-1.33-.11-.39,0-.72-.17-.72-.33,0-.33.28-.44.83-.44,1.11,0,2.6.11,5.71.17.28,0,10.14,0,11.25-.06,1.11-.05,1.72-.11,2.16-.28.33-.11.39-.17.61-.17.11,0,.22.11.22.39,0,.33-.33,1.11-.44,2.49-.06.94-.11,1.83-.17,2.88,0,.5-.11.83-.39.83s-.39-.22-.39-.61c-.06-.83-.22-1.38-.39-1.77-.33-1.11-.83-1.5-3.6-1.66-.72-.05-6.21-.11-6.32-.11-.17,0-.28.11-.28.44v12.58c0,.33.05.55.33.55.67,0,6.32-.06,7.48-.17,1.27-.06,2.11-.22,2.55-.83.22-.33.39-.44.61-.44.11,0,.22.05.22.33s-.22,1.33-.39,2.94c-.17,1.55-.17,2.66-.22,3.38-.06.44-.17.61-.39.61-.28,0-.33-.33-.33-.72,0-.33-.05-.89-.17-1.33-.22-.72-.55-1.49-2.66-1.66-1.27-.11-5.76-.22-6.65-.22-.33,0-.39.17-.39.39v4.05c0,1.72-.06,6.59,0,7.54.11,2.05.39,3.1,1.55,3.6.83.39,2.16.5,4.05.5,1.05,0,2.82.06,4.21-.33,1.66-.5,2.05-1.61,2.49-3.66.11-.55.28-.78.5-.78.33,0,.33.5.33.83,0,.39-.44,3.88-.61,4.82-.22,1.11-.61,1.22-2.44,1.22-3.66,0-5.21-.11-7.15-.11-1.94-.06-4.49-.17-6.54-.17-1.27,0-2.33.17-3.66.17-.5,0-.78-.11-.78-.39,0-.22.22-.39.5-.39.33,0,.72-.06,1.11-.17,1-.22,1.66-.94,1.77-4.38.06-1.88.11-4.16.11-8.37v-8.31Z"/>
    <path class="cls-2" d="m377.23,138.21c0-7.31,0-8.64-.11-10.14-.11-1.49-.5-2.33-2.22-2.66-.33-.06-.89-.11-1.33-.11-.39,0-.61-.11-.61-.33s.17-.39.67-.39c2.38,0,5.76.17,5.87.17.5,0,4.27-.17,5.82-.17,3.1,0,6.48.28,9.09,2.11,1.05.78,3.32,2.99,3.32,6.76,0,3.05-1.5,6.93-5.87,10.47,4.05,4.99,7.37,9.09,10.19,12.02,2.66,2.72,4.32,3.16,5.87,3.38.39.06,1.55.11,1.72.11.44,0,.61.17.61.39,0,.28-.22.39-1,.39h-3.88c-2.6,0-3.82-.17-5.04-.67-2.33-1-3.99-3.49-6.87-7.2-2.16-2.66-4.38-5.65-5.32-6.82-.22-.22-.33-.33-.67-.33l-5.71-.06c-.22,0-.28.06-.28.28v.78c0,4.43,0,8.48.28,10.47.17,1.33.33,2.44,2.16,2.66.55.06,1.16.11,1.61.11.5,0,.72.17.72.33,0,.28-.22.44-.78.44-2.88,0-5.98-.17-6.2-.17-.89,0-3.33.17-4.82.17-.55,0-.78-.11-.78-.44,0-.17.33-.33.67-.33.39,0,.78,0,1.22-.11.94-.16,1.27-.78,1.44-2.1.28-2,.22-6.54.22-10.69v-8.31Zm4.27,3.93c0,.28.06.55.28.67.72.39,2.94.72,4.93.72,1.16,0,2.55-.05,3.71-.83,1.66-1.05,2.77-3.49,2.77-7.04,0-6.04-3.21-9.36-8.14-9.36-1.38,0-2.55.11-3.21.28-.17.05-.33.22-.33.5v15.07Z"/>
    <path class="cls-2" d="m413.52,159.6c-.72-.33-.72-.55-.72-1.89,0-2.55.17-4.43.22-5.21.06-.5.17-.78.44-.78s.39.17.39.55c0,.33,0,1,.17,1.66.72,3.6,3.99,4.99,7.2,4.99,4.6,0,6.82-3.16,6.82-5.93,0-3.16-1.44-5.1-5.49-8.37l-2.22-1.72c-5.32-4.27-6.43-7.2-6.43-10.47,0-5.1,4.04-8.53,10.25-8.53,1.94,0,3.27.17,4.49.44,1.05.22,1.5.28,1.88.28s.5.11.5.33-.22,2.16-.22,5.37c0,.83-.11,1.16-.39,1.16s-.33-.22-.39-.61c-.05-.5-.17-1.66-.66-2.6-.28-.5-1.55-2.6-6.21-2.6-3.32,0-5.82,2-5.82,5.32,0,2.6,1.33,4.21,5.93,7.7l1.28,1c5.76,4.43,7.26,7.37,7.26,11.3,0,2-.83,5.54-4.21,7.87-2.16,1.39-4.82,1.94-7.48,1.94-2.33,0-4.49-.28-6.59-1.22Z"/>
    <path class="cls-2" d="m441.1,153.78c.89,0,2,1.66,2,3.82s-1.39,4.88-4.32,7.98c-.61.67-1.22,1.16-1.5,1.16-.72,0,.22-1.11.39-1.33,1.83-2.55,2.16-3.77,2.16-4.99,0-.72-.44-1.83-1.55-2.77-.33-.28-.44-.55-.44-.67,0-1.33,1.89-3.21,3.27-3.21Z"/>
    <path class="cls-2" d="m475.22,134.39c0-8.64,0-10.2-.11-11.97-.11-1.88-.66-2.82-1.88-3.1-.61-.17-1.33-.22-1.72-.22-.22,0-.44-.11-.44-.33,0-.33.28-.44.89-.44,1.83,0,5.32.17,5.6.17s3.77-.17,5.43-.17c.61,0,.89.11.89.44,0,.22-.22.33-.44.33-.39,0-.72.06-1.38.17-1.5.28-1.94,1.22-2.05,3.16-.11,1.77-.11,3.33-.11,11.97v9.75c0,5.32,0,9.69.28,12.02.17,1.61.5,2.83,2.16,3.05.78.11,1.94.22,2.27.22.5,0,.67.17.67.33,0,.28-.22.44-.83.44-3.05,0-6.59-.17-6.87-.17s-3.77.17-5.43.17c-.61,0-.89-.11-.89-.44,0-.17.11-.33.61-.33.33,0,.94-.06,1.44-.17,1.11-.22,1.44-1.5,1.66-3.1.28-2.33.28-6.7.28-12.02v-9.75Z"/>
    <path class="cls-2" d="m496.82,126.19c0-1.72.17-2.27.61-2.27.39,0,1.33,1.11,1.72,1.5.5.55,8.2,8.42,15.96,16.34,4.32,4.21,9.86,9.92,11.3,11.25l-.61-23.05c-.05-2.99-.39-3.99-1.88-4.38-.94-.17-1.77-.22-2.16-.22-.55,0-.67-.22-.67-.44,0-.28.44-.33,1-.33,2.38,0,4.71.17,5.21.17.55,0,2.27-.17,4.43-.17.61,0,.78.06.78.33,0,.22-.17.39-.5.44-.33.06-.78.06-1.39.17-1.27.28-1.66.83-1.66,4.16l-.11,27.82c0,2.77-.11,3.05-.5,3.05s-.94-.39-3.66-2.94c-.22-.11-7.92-7.76-12.74-12.47-5.76-5.98-11.3-11.75-12.69-13.19l.72,21.67c.11,3.82.44,5.26,1.83,5.6.89.22,1.83.22,2.27.22s.67.17.67.39c0,.28-.28.39-.89.39-2.99,0-4.99-.17-5.37-.17s-2.44.17-4.82.17c-.5,0-.83-.06-.83-.39,0-.22.22-.39.78-.39.39,0,1,0,1.72-.22,1.22-.39,1.5-1.88,1.5-5.93,0-26.43.06-17.9,0-27.09Z"/>
    <path class="cls-2" d="m545.18,155.77c-4.71-4.1-5.93-9.53-5.93-14.13,0-3.1,1.22-8.59,5.6-12.8,2.99-2.88,7.48-4.93,14.91-4.93,2.55,0,4.6.22,7.31.61,1.78.28,3.55.55,4.88.61.44,0,.5.28.5.55,0,.44-.16.94-.28,2.71-.06,1.55-.06,4.43-.11,5.1-.06.78-.17,1.05-.44,1.05-.39,0-.44-.33-.44-1.05,0-1.61-.77-3.77-2.16-4.82-1.66-1.44-5.54-2.83-9.81-2.83-6.15,0-8.98,1.72-10.64,3.21-3.6,3.27-4.43,7.26-4.43,12.14,0,9.2,7.48,17.29,17.23,17.29,3.77,0,6.54-.39,8.47-2.27,1-1.05,1.55-2.44,1.83-3.99.11-.55.28-.83.61-.83.28,0,.28.39.28.78,0,.44-.72,4.93-1.11,6.15-.33.89-.5,1.05-1.27,1.38-1.94.83-5.65,1.11-8.75,1.11-7.32,0-12.3-1.66-16.24-5.04Z"/>
    <path class="cls-2" d="m579.52,157.55c0-1.27.94-2.94,2.94-2.94,1.61,0,2.82,1.16,2.82,2.88s-1.22,2.99-2.88,2.99c-1.94,0-2.88-1.61-2.88-2.94Z"/>
    <path class="cls-2" d="m49.1,68.99c-2.3-1.59-4.84-2.46-7.6-2.6-2.76-.14-5.66.38-8.7,1.58-2.91,1.17-5.93,3.14-9.05,5.89-3.12,2.76-6.08,6.16-8.87,10.2-2.23,3.23-3.95,6.38-5.15,9.43-1.21,3.06-1.86,6.23-1.97,9.5-.15,3.09.38,6,1.57,8.75,1.19,2.76,3.22,5.13,6.1,7.12,3.07,2.12,6.08,3.2,9.03,3.25,2.95.05,5.67-.26,8.16-.92l22.99-33.29c.38-1.21.63-2.63.73-4.27.11-1.63-.03-3.29-.4-4.96-.45-1.73-1.2-3.43-2.26-5.1-1.06-1.67-2.59-3.19-4.58-4.57Z"/>
    <path class="cls-2" d="m14.5,40.08C6.49,40.08,0,46.57,0,54.58v26.01c.96-1.87,2.04-3.72,3.31-5.56,2.84-4.12,6.25-7.53,10.22-10.24,3.97-2.71,8.16-4.58,12.57-5.63,4.12-.96,8.41-1.03,12.88-.22,4.46.81,8.46,2.43,11.99,4.87,2.65,1.83,5.02,3.97,7.11,6.4,2.09,2.44,3.7,4.81,4.82,7.12l13.11-23.09c1.12-1.61,1.87-3.28,2.25-4.98.38-1.71.33-3.23-.15-4.59-.57-1.47-1.66-3.01-3.26-4.6"/>
    <path class="cls-2" d="m136.24,133.48c-1.21,4.42-3.39,8.92-6.56,13.5-3.11,4.5-6.69,8.09-10.76,10.77-4.07,2.68-8.23,4.47-12.5,5.39-4.41.87-8.69.94-12.82.18-4.14-.76-7.98-2.35-11.51-4.8-3.42-2.36-5.97-4.69-7.63-6.97-1.66-2.28-2.83-4.42-3.49-6.42l-.46-.32-11.82,17.13c-.96,1.39-1.49,2.72-1.59,4.03-.1,1.29.26,2.54,1.09,3.74.68.98,1.77,2.23,3.25,3.74,1.33,1.36,2.49,2.39,3.5,3.18h57.1c8.01,0,14.5-6.49,14.5-14.5v-29.96c-.1.44-.18.88-.3,1.32Z"/>
    <path class="cls-2" d="m80.87,40.08l15.81,9.69.27,1.46-52.96,76.69c-.93,1.34-1.46,2.67-1.59,3.97-.13,1.3.08,2.62.63,3.97.41.97,1.27,1.98,2.58,3.05,1.3,1.07,2.52,2.03,3.65,2.86l-2.63,3.81-20.78-12.47-.31-1.41,3.66-5.31-.38-.43c-3.54.85-7.27.97-11.19.36-3.92-.61-7.44-1.98-10.55-4.13C4.24,120.24,1.9,117.76,0,114.8v47.32C0,170.13,6.49,176.62,14.5,176.62h42.23l-25.85-17.85,2.63-3.81c1.25.75,2.47,1.45,3.66,2.1,1.2.65,2.33,1.15,3.4,1.49,1.42.41,2.69.3,3.82-.35,1.13-.64,2.14-1.61,3.04-2.93l41.8-60.53c.8-1.15,1.28-2.46,1.45-3.94.17-1.48.01-2.86-.46-4.15-.37-.94-1.09-1.96-2.15-3.06-1.06-1.11-2.14-2.09-3.24-2.97l2.63-3.81,20.27,12.12.33,1.25-4.42,6.4.38.44c3.59-.93,7.4-1.14,11.43-.63,4.02.5,7.5,1.77,10.42,3.79,3.54,2.44,6.26,5.43,8.17,8.96,1.11,2.06,1.93,4.2,2.51,6.42v-61c0-8.01-6.49-14.5-14.5-14.5"/>
    <path class="cls-2" d="m117.28,103.73c-2.85-1.97-5.7-3.01-8.56-3.15-2.86-.13-5.63.16-8.28.89l-23.23,33.64c-.37,1.28-.55,2.75-.53,4.41.02,1.66.23,3.23.63,4.7.53,1.79,1.28,3.45,2.25,5,.97,1.56,2.46,3.02,4.46,4.4,2.15,1.49,4.62,2.35,7.41,2.6,2.78.25,5.56-.2,8.35-1.35,3.18-1.32,6.23-3.31,9.14-5.96,2.91-2.65,5.7-5.91,8.39-9.8,1.97-2.84,3.66-5.96,5.09-9.35,1.43-3.39,2.25-6.63,2.45-9.72.23-3.14-.23-6.13-1.39-8.98-1.16-2.84-3.22-5.29-6.18-7.33Z"/>
  </g>
  <rect class="cls-3" x="641.35" y="0" width="1" height="216.7"/>
  <g>
    <polygon class="cls-1" points="887.33 34.65 887.33 .05 697.23 .05 697.23 216.65 887.33 216.65 887.33 181.35 876.73 181.35 876.73 205.75 707.73 205.75 707.73 11.05 876.73 11.05 876.73 34.65 887.33 34.65"/>
    <g>
      <g>
        <path class="cls-3" d="m807.93,79.45c.3-10.9-2.2-19.1-7.6-24.4-5.2-5.3-13.1-7.8-23.5-7.6h-27.6v83.3h28.3c4.9,0,9.4-.6,13-1.8,4-1.3,7.2-3.3,9.8-5.9,2.6-2.7,4.6-6.1,5.9-10.1,1.3-4,1.8-8.8,1.6-14.2l.1-19.3c-.1,0,0,0,0,0Zm-13.5,1.1v17c-.1,8.8-1.7,14.4-5.2,17.8-3.1,3-7.7,4.4-14.6,4.3h-12v-61.3h11.9c6.8-.1,11.4,1.2,14.6,4.1,3.6,3.6,5.2,9.2,5.3,18.1Z"/>
        <path class="cls-3" d="m890.13,56.35c-2.7-3.5-5.9-6-9.9-7.7-4-1.6-8.7-2.4-14.5-2.4-10.8,0-17.8,2.6-23.3,8.7-2.6,2.8-4.3,5.9-5.4,9.7-1.1,3.8-1.6,8.3-1.6,14.4v20c0,5.6.4,9.8,1.3,13.4s2.3,6.5,4.4,9.3c2.7,3.5,5.9,6,9.9,7.7,4,1.6,8.8,2.4,14.6,2.4,5.4,0,9.8-.7,13.5-2,3.8-1.4,6.9-3.6,9.7-6.7,5-5.3,6.9-12.1,6.9-24.1v-20c0-5.6-.4-9.8-1.3-13.4-.8-3.6-2.2-6.6-4.3-9.3Zm-11.7,59c-1.3,1.8-3,3.1-5.1,4s-4.5,1.3-7.6,1.3-5.5-.4-7.6-1.3-3.8-2.2-5.1-4c-2.7-3.6-4-9.4-4-17.5v-17.7c0-8.2,1.3-13.9,4-17.5,1.3-1.8,3-3.1,5.1-4s4.6-1.3,7.6-1.3,5.5.4,7.6,1.3c2.1.9,3.8,2.2,5.1,4,2.7,3.6,4,9.4,4,17.5v17.7c0,8.2-1.3,13.9-4,17.5Z"/>
        <path class="cls-3" d="m1055.93,89.55c-4.1-2.8-6.1-3.6-17.3-6.3-6.9-1.7-11-3.4-13.6-5.6-2.5-2.1-3.6-4.7-3.6-8.6,0-3.6,1.2-6.6,3.5-8.6s5.7-3.1,9.9-3.1c3.6,0,6.7.6,9.2,1.8,2.6,1.2,4.7,3,6.4,5.3l.3.5,10.1-6.6-.3-.5c-4.7-7.6-13.5-11.7-25.5-11.7-4.1,0-7.9.5-11.2,1.6s-6.1,2.6-8.4,4.6c-2.3,2-4.1,4.5-5.3,7.4s-1.8,6.3-1.8,9.9c0,6.8,1.8,11.8,5.5,15.7,3.8,3.8,9.6,6.7,18.4,8.8q11.9,2.8,14.5,4.7h0c2.7,1.8,4.2,5.1,4.2,9.1s-1.4,7.2-4.1,9.3c-2.8,2.2-6.9,3.2-12.2,3.2-9.2,0-15.5-2.8-19-8.5l-.3-.5-10.4,6.6.3.5c2.7,4.4,6.5,7.7,11.4,9.9,4.9,2.2,10.9,3.2,18,3.2,9.5,0,16.9-2.1,21.9-6.2,5-4.1,7.6-10.1,7.6-18-.1-8.3-2.7-14.2-8.2-17.9Z"/>
        <path class="cls-3" d="m968.23,112.35c-2.4,2.4-4.7,4.1-6.7,5.2-2.1,1.1-4.6,1.6-7.7,1.6-4.9,0-8.6-1.3-11.1-4.1-2.4-2.6-4-5.5-4.6-8.6-.5-3.2-.9-9.2-.9-17.6s.3-14.2.9-17.5c.6-3.2,2.1-6.1,4.6-8.8,2.4-2.6,6.1-4,11-4,3.2,0,5.8.5,7.8,1.6s4.2,2.9,6.6,5.2l.4.4,9.2-9.4-.4-.4c-3.4-3.4-7-5.9-10.6-7.5s-7.8-2.4-13-2.4c-8.7,0-15.6,2.5-20.6,7.4-4.9,4.9-7.7,9.6-8.6,14.1-.9,4.3-1.3,11.3-1.3,21.3s.4,17.1,1.3,21.3c.8,4.4,3.7,9.2,8.6,14,2.4,2.5,5.4,4.3,8.8,5.6s7.3,1.8,11.7,1.8c5.1,0,9.4-.9,13-2.8,3.6-1.6,7.2-4.1,10.6-7.4l.4-.4-9.2-9.4-.2.8Z"/>
      </g>
      <g>
        <path class="cls-3" d="m749.53,141.45h9.4c7.2-.1,10.8,3.6,10.6,11v6.7c.2,7.4-3.4,11.1-10.6,11h-9.4v-28.7h0Zm8.7,25.2c5.1.1,7-2.1,7.1-7.9v-5.9c-.1-5.8-2-8-7.1-7.9h-4.3v21.7h4.3Z"/>
        <path class="cls-3" d="m780.33,141.45h17.1v3.6h-12.9v8.8h11v3.6h-11v9.2h13v3.6h-17.3c.1-.1.1-28.8.1-28.8Z"/>
        <path class="cls-3" d="m811.73,170.05h-4.3v-28.6h10.1c3.6,0,5.5.6,7,2.1,1.4,1.4,2,3.3,2,6.1,0,4.7-1.7,7.2-5.7,8l6.3,12.4h-4.7l-5.7-12h-5.1l.1,12h0Zm5.7-15.4c3.4,0,4.9-1.5,4.9-4.9s-1.6-4.9-5.2-4.9h-5.6v9.7l5.9.1h0Z"/>
        <path class="cls-3" d="m837.23,141.45h4.1l8.4,17.7,8.4-17.7h4.1v28.6h-4.1v-20.4l-7,14.4h-2.7l-7-14.4v20.4h-4.1l-.1-28.6h0Z"/>
        <path class="cls-3" d="m877.63,164.05l-2,6h-4.7l10.4-28.6h4.1l10.4,28.6h-4.6l-2-6h-11.6Zm5.8-17.4l-4.8,14h9.6l-4.8-14Z"/>
        <path class="cls-3" d="m907.13,144.95h-8v-3.6h20.3v3.6h-8v25.1h-4.3v-25.1h0Z"/>
        <path class="cls-3" d="m927.83,152.25c0-4.1.7-6.4,2.4-8.2,1.9-2.1,4.3-3,8-3,4,0,6.5,1.1,8.3,3.4,1.4,1.8,2,4,2,7.8v7c0,4.1-.7,6.4-2.4,8.2-1.9,2.1-4.3,3-7.9,3-4,0-6.6-1.1-8.4-3.4-1.4-1.8-2-4-2-7.8v-7h0Zm16.4.4c0-5.7-1.8-8.1-6-8.1s-6.1,2.4-6.1,8.1v6.2c0,5.7,1.8,8.1,6.1,8.1s6-2.4,6-8.1v-6.2Z"/>
        <path class="cls-3" d="m959.23,141.45h4.3v25.1h13v3.6h-17.3v-28.7Z"/>
        <path class="cls-3" d="m984.63,152.25c0-4.1.7-6.4,2.4-8.2,1.9-2.1,4.3-3,8-3,4,0,6.5,1.1,8.3,3.4,1.4,1.8,2,4,2,7.8v7c0,4.1-.7,6.4-2.4,8.2-1.9,2.1-4.3,3-7.9,3-4,0-6.6-1.1-8.4-3.4-1.4-1.8-2-4-2-7.8v-7h0Zm16.3.4c0-5.7-1.8-8.1-6-8.1s-6.1,2.4-6.1,8.1v6.2c0,5.7,1.8,8.1,6.1,8.1s6-2.4,6-8.1v-6.2Z"/>
        <path class="cls-3" d="m1026.33,154.65h9.6v4.6c0,4-.6,6.1-2.1,7.9-1.8,2.2-4.4,3.2-8.1,3.2-4.1,0-6.8-1.1-8.6-3.6-1.4-1.8-1.8-4-1.8-8.1v-6c0-4.4.6-6.7,2.2-8.6,1.8-2.1,4.2-3,7.8-3,6,0,9.3,2.6,9.6,7.6l-4,.3c-.4-2.9-2.3-4.4-5.5-4.4-4.3,0-6,2.3-6,8.4v5.5c0,6.2,1.6,8.4,6,8.4,4,0,6-2.2,6-6.7v-2.2h-5.2v-3.4h.1v.1Z"/>
        <path class="cls-3" d="m1051.43,159.75l-9-18.2h4.5l6.6,14,6.5-14h4.5l-9,18.2v10.3h-4.3l.2-10.3h0Z"/>
      </g>
    </g>
  </g>
</svg>